<svg width="10" height="8" fill="none" xmlns="http://www.w3.org/2000/svg"><path d="M4.903 7.887l-.606-.547a80.948 80.948 0 01-1.503-1.387c-.313-.3-.665-.67-1.055-1.113C1.36 4.397 1.1 4 .958 3.648a3.021 3.021 0 01-.215-1.113c0-.638.215-1.178.644-1.62C1.83.47 2.377.25 3.027.25c.756 0 1.381.293 1.876.879C5.398.543 6.023.25 6.778.25c.651 0 1.191.221 1.621.664.443.443.664.983.664 1.621 0 .508-.17 1.035-.508 1.582a7.84 7.84 0 01-1.113 1.426c-.39.404-1.035 1.01-1.934 1.816l-.605.528z" fill="#BC9CFF"/></svg>